<svg width="32" height="33" viewBox="0 0 32 33" fill="none" xmlns="http://www.w3.org/2000/svg">
<rect y="0.199951" width="32" height="32" rx="16" fill="#E11C1C"/>
<g clip-path="url(#clip0_183_222)">
<path d="M14.1957 8.83997C12.8904 8.83997 11.9361 9.6346 11.5988 10.4768C10.2833 10.7652 9.28003 12.2476 9.28003 13.96C9.28003 14.4716 9.37942 14.9843 9.5919 15.56H11.2588C11.3913 15.1884 11.7434 14.92 12.16 14.92C12.6893 14.92 13.12 15.3507 13.12 15.88C13.12 16.4092 12.6893 16.84 12.16 16.84C11.7434 16.84 11.3913 16.5715 11.2588 16.2H9.69503C9.45983 16.5209 9.28003 16.9158 9.28003 17.48C9.28003 18.3689 9.83631 19.1438 10.755 19.5675C10.5 20.1607 10.5109 20.7452 10.7925 21.2406C11.1234 21.8227 11.7875 22.2044 12.5607 22.27C12.936 23.2812 13.9445 23.56 14.5157 23.56C15.0469 23.56 15.68 23.3005 15.68 22.0662V17.8H13.76V19.1387C14.1315 19.2712 14.4 19.6233 14.4 20.04C14.4 20.5692 13.9693 21 13.44 21C12.9107 21 12.48 20.5692 12.48 20.04C12.48 19.6233 12.7485 19.2712 13.12 19.1387V17.16H15.68V14.6H13.76V13H13.0613C12.9288 13.3715 12.5767 13.64 12.16 13.64C11.6307 13.64 11.2 13.2092 11.2 12.68C11.2 12.1507 11.6307 11.72 12.16 11.72C12.5767 11.72 12.9288 11.9884 13.0613 12.36H14.4V13.96H15.68V10.5C15.68 8.95181 15.1192 8.83997 14.1957 8.83997ZM17.8044 8.83997C16.8809 8.83997 16.32 8.95181 16.32 10.5V12.36H18.9388C19.0914 11.9324 19.5343 11.6414 20.0319 11.7387C20.4079 11.8123 20.7137 12.1224 20.7832 12.4993C20.8948 13.1077 20.4285 13.64 19.84 13.64C19.4234 13.64 19.0713 13.3715 18.9388 13H16.32V19.72H17.6588C17.8114 19.2924 18.2543 19.0014 18.7519 19.0987C19.1279 19.1723 19.4337 19.4824 19.5032 19.8593C19.6148 20.4677 19.1485 21 18.56 21C18.1434 21 17.7913 20.7315 17.6588 20.36H16.32V22.0668C16.32 23.3011 16.9532 23.56 17.4844 23.56C18.0556 23.56 19.0641 23.2812 19.4388 22.27C20.2119 22.2044 20.8766 21.8227 21.2075 21.2406C21.3426 21.0032 21.4142 20.745 21.4244 20.4756C21.4372 20.1422 21.295 19.8323 21.15 19.5318C21.1311 19.4918 21.12 19.4476 21.12 19.4V18.12H18.24V16.4612C17.8125 16.3089 17.5215 15.8657 17.6188 15.3681C17.6924 14.9921 18.0024 14.6863 18.3794 14.6168C18.9877 14.5052 19.52 14.9715 19.52 15.56C19.52 15.9766 19.2515 16.3287 18.88 16.4612V17.48H21.76V19.26C22.3648 18.8164 22.72 18.1859 22.72 17.48C22.72 16.8352 22.4854 16.4112 22.2013 16.0662C22.5594 15.2733 22.72 14.6166 22.72 13.96C22.72 12.2476 21.7168 10.7652 20.4013 10.4768C20.0637 9.63428 19.1097 8.83997 17.8044 8.83997ZM12.16 12.36C12.0752 12.36 11.9938 12.3937 11.9338 12.4537C11.8737 12.5137 11.84 12.5951 11.84 12.68C11.84 12.7648 11.8737 12.8462 11.9338 12.9062C11.9938 12.9663 12.0752 13 12.16 13C12.2449 13 12.3263 12.9663 12.3863 12.9062C12.4463 12.8462 12.48 12.7648 12.48 12.68C12.48 12.5951 12.4463 12.5137 12.3863 12.4537C12.3263 12.3937 12.2449 12.36 12.16 12.36ZM19.84 12.36C19.7552 12.36 19.6738 12.3937 19.6138 12.4537C19.5537 12.5137 19.52 12.5951 19.52 12.68C19.52 12.7648 19.5537 12.8462 19.6138 12.9062C19.6738 12.9663 19.7552 13 19.84 13C19.9249 13 20.0063 12.9663 20.0663 12.9062C20.1263 12.8462 20.16 12.7648 20.16 12.68C20.16 12.5951 20.1263 12.5137 20.0663 12.4537C20.0063 12.3937 19.9249 12.36 19.84 12.36ZM18.56 15.24C18.4752 15.24 18.3938 15.2737 18.3338 15.3337C18.2737 15.3937 18.24 15.4751 18.24 15.56C18.24 15.6448 18.2737 15.7262 18.3338 15.7862C18.3938 15.8463 18.4752 15.88 18.56 15.88C18.6449 15.88 18.7263 15.8463 18.7863 15.7862C18.8463 15.7262 18.88 15.6448 18.88 15.56C18.88 15.4751 18.8463 15.3937 18.7863 15.3337C18.7263 15.2737 18.6449 15.24 18.56 15.24ZM12.16 15.56C12.0752 15.56 11.9938 15.5937 11.9338 15.6537C11.8737 15.7137 11.84 15.7951 11.84 15.88C11.84 15.9648 11.8737 16.0462 11.9338 16.1062C11.9938 16.1663 12.0752 16.2 12.16 16.2C12.2449 16.2 12.3263 16.1663 12.3863 16.1062C12.4463 16.0462 12.48 15.9648 12.48 15.88C12.48 15.7951 12.4463 15.7137 12.3863 15.6537C12.3263 15.5937 12.2449 15.56 12.16 15.56ZM13.44 19.72C13.3552 19.72 13.2738 19.7537 13.2138 19.8137C13.1537 19.8737 13.12 19.9551 13.12 20.04C13.12 20.1248 13.1537 20.2062 13.2138 20.2662C13.2738 20.3263 13.3552 20.36 13.44 20.36C13.5249 20.36 13.6063 20.3263 13.6663 20.2662C13.7263 20.2062 13.76 20.1248 13.76 20.04C13.76 19.9551 13.7263 19.8737 13.6663 19.8137C13.6063 19.7537 13.5249 19.72 13.44 19.72ZM18.56 19.72C18.4752 19.72 18.3938 19.7537 18.3338 19.8137C18.2737 19.8737 18.24 19.9551 18.24 20.04C18.24 20.1248 18.2737 20.2062 18.3338 20.2662C18.3938 20.3263 18.4752 20.36 18.56 20.36C18.6449 20.36 18.7263 20.3263 18.7863 20.2662C18.8463 20.2062 18.88 20.1248 18.88 20.04C18.88 19.9551 18.8463 19.8737 18.7863 19.8137C18.7263 19.7537 18.6449 19.72 18.56 19.72Z" fill="white"/>
</g>
<defs>
<clipPath id="clip0_183_222">
<rect width="16" height="16" fill="white" transform="translate(8 8.19995)"/>
</clipPath>
</defs>
</svg>
