<?xml version="1.0" encoding="UTF-8"?>
<!DOCTYPE svg PUBLIC "-//W3C//DTD SVG 1.1//EN" "http://www.w3.org/Graphics/SVG/1.1/DTD/svg11.dtd">
<svg xmlns="http://www.w3.org/2000/svg" version="1.1" width="1200px" height="1200px" style="shape-rendering:geometricPrecision; text-rendering:geometricPrecision; image-rendering:optimizeQuality; fill-rule:evenodd; clip-rule:evenodd" xmlns:xlink="http://www.w3.org/1999/xlink">
<g><path style="opacity:0.999" fill="#54c147" d="M 596.5,6.5 C 772.285,8.54997 920.119,73.2166 1040,200.5C 1156.72,333.345 1207.06,488.345 1191,665.5C 1173.69,809.611 1113.19,931.777 1009.5,1032C 878.818,1151.9 724.484,1205.23 546.5,1192C 366.287,1172.02 222.787,1089.52 116,944.5C 20.6072,805.22 -12.0595,652.22 18,485.5C 50.8202,332.256 129.987,209.423 255.5,117C 357.735,45.4231 471.401,8.58977 596.5,6.5 Z"/></g>
<g><path style="opacity:1" fill="#fefefe" d="M 808.5,283.5 C 853.223,316.71 897.556,350.543 941.5,385C 820.253,562.16 699.253,739.493 578.5,917C 577.5,917.667 576.5,917.667 575.5,917C 470.098,835.305 365.098,753.138 260.5,670.5C 290.806,627.028 321.306,583.695 352,540.5C 352.739,539.426 353.739,538.759 355,538.5C 416.752,584.63 478.252,631.13 539.5,678C 540.167,678.667 540.833,678.667 541.5,678C 630.386,546.385 719.386,414.885 808.5,283.5 Z"/></g>
</svg>
