<svg width="32" height="33" viewBox="0 0 32 33" fill="none" xmlns="http://www.w3.org/2000/svg">
<rect y="0.199951" width="32" height="32" rx="16" fill="white"/>
<path d="M13.8666 9.2666C13.2773 9.2666 12.8 9.74393 12.8 10.3333V18.8666C12.8 19.4559 13.2773 19.9333 13.8666 19.9333H20.8C21.3893 19.9333 21.8666 19.4559 21.8666 18.8666V12.7333C21.8666 12.5919 21.8106 12.4565 21.7104 12.3562L18.7771 9.42285C18.6768 9.32258 18.5413 9.2666 18.4 9.2666H13.8666ZM18.1333 10.2822L20.851 12.9999H18.6666C18.3722 12.9999 18.1333 12.761 18.1333 12.4666V10.2822ZM11.2 11.9333C10.6106 11.9333 10.1333 12.4106 10.1333 12.9999V21.5333C10.1333 22.1226 10.6106 22.5999 11.2 22.5999H18.1333C18.7226 22.5999 19.2 22.1226 19.2 21.5333V20.9999H13.8666C12.6901 20.9999 11.7333 20.0431 11.7333 18.8666V11.9333H11.2Z" fill="black"/>
</svg>
