<svg width="32" height="33" viewBox="0 0 32 33" fill="none" xmlns="http://www.w3.org/2000/svg">
<rect y="0.199951" width="32" height="32" rx="16" fill="#797979"/>
<g clip-path="url(#clip0_183_258)">
<path d="M16.0255 8.83997C11.9645 8.83997 8.66553 12.1389 8.66553 16.2C8.66553 20.261 11.9645 23.56 16.0255 23.56C20.0866 23.56 23.3855 20.261 23.3855 16.2C23.3855 12.1389 20.0866 8.83997 16.0255 8.83997ZM16.0255 9.47997C19.7407 9.47997 22.7455 12.4848 22.7455 16.2C22.7455 19.9151 19.7407 22.92 16.0255 22.92C12.3104 22.92 9.30553 19.9151 9.30553 16.2C9.30553 12.4848 12.3104 9.47997 16.0255 9.47997ZM15.7055 10.1625C14.8761 10.3666 14.1421 11.3491 13.6749 12.745C14.3191 12.8768 15.0031 12.9542 15.7055 12.9725V10.1625ZM16.3455 10.1625V12.9725C17.055 12.9545 17.7393 12.8792 18.378 12.75C17.9108 11.3516 17.1756 10.3666 16.3455 10.1625ZM14.2393 10.3887C13.2134 10.7046 12.307 11.2886 11.5912 12.0537C12.0267 12.2704 12.5157 12.4513 13.043 12.595C13.3416 11.6839 13.751 10.9282 14.2393 10.3887ZM17.8118 10.3887C18.3011 10.9292 18.7113 11.6873 19.0099 12.6006C19.5421 12.4556 20.0308 12.272 20.4587 12.0518C19.7431 11.2874 18.8367 10.7042 17.8118 10.3887ZM20.8774 12.5518C20.3827 12.8203 19.8127 13.0425 19.1868 13.2137C19.3919 14.0198 19.5147 14.92 19.5374 15.88H22.0893C22.024 14.6345 21.584 13.4891 20.8774 12.5518ZM11.1705 12.5556C10.4656 13.4922 10.0271 14.6361 9.96178 15.88H12.5137C12.5364 14.918 12.6594 14.0161 12.8655 13.2087C12.2454 13.0391 11.6739 12.8196 11.1705 12.5556ZM13.4918 13.3593C13.295 14.1225 13.177 14.9795 13.1537 15.88H15.7055V13.6125C14.9414 13.5933 14.1945 13.5069 13.4918 13.3593ZM18.5599 13.3643C17.8629 13.5093 17.1167 13.5939 16.3455 13.6125V15.88H18.8974C18.874 14.9814 18.7561 14.1263 18.5599 13.3643ZM9.96178 16.52C10.0271 17.7654 10.4671 18.9108 11.1737 19.8481C11.6684 19.5796 12.2384 19.3574 12.8643 19.1862C12.6592 18.3801 12.5364 17.48 12.5137 16.52H9.96178ZM13.1537 16.52C13.177 17.4185 13.295 18.2737 13.4912 19.0356C14.1881 18.8906 14.9343 18.806 15.7055 18.7875V16.52H13.1537ZM16.3455 16.52V18.7875C17.1097 18.8067 17.8559 18.8931 18.5587 19.0406C18.7555 18.2774 18.874 17.4204 18.8974 16.52H16.3455ZM19.5374 16.52C19.5147 17.4819 19.3916 18.3839 19.1855 19.1912C19.8057 19.3608 20.3772 19.5803 20.8805 19.8443C21.5855 18.9077 22.024 17.7638 22.0893 16.52H19.5374ZM15.7055 19.4275C14.9961 19.4454 14.3117 19.5207 13.673 19.65C14.1402 21.0484 14.8754 22.0333 15.7055 22.2375V19.4275ZM16.3455 19.4275V22.2375C17.175 22.0333 17.909 21.0508 18.3762 19.655C17.732 19.5231 17.0479 19.4457 16.3455 19.4275ZM13.0412 19.7993C12.509 19.9443 12.0202 20.1279 11.5924 20.3481C12.3079 21.1126 13.2143 21.6957 14.2393 22.0112C13.75 21.4707 13.3397 20.7126 13.0412 19.7993ZM19.008 19.805C18.7095 20.716 18.2995 21.4717 17.8112 22.0112C18.8371 21.6954 19.7441 21.1113 20.4599 20.3462C20.0244 20.1296 19.5354 19.9486 19.008 19.805Z" fill="#F8F8F8"/>
</g>
<defs>
<clipPath id="clip0_183_258">
<rect width="16" height="16" fill="white" transform="translate(8 8.19995)"/>
</clipPath>
</defs>
</svg>
