<svg width="32" height="32" viewBox="0 0 32 32" fill="none" xmlns="http://www.w3.org/2000/svg">
<rect width="32" height="32" rx="16" fill="#E11C1C"/>
<path d="M21.4201 10.76C21.2076 10.7675 21.0126 10.88 20.9001 11.06L14.8801 20.27L10.9801 16.9C10.8126 16.7262 10.5613 16.6612 10.3301 16.7337C10.1001 16.805 9.92881 17 9.88881 17.2375C9.84881 17.4762 9.94506 17.7162 10.1401 17.86L14.6001 21.72C14.7401 21.8387 14.9251 21.8912 15.1063 21.865C15.2888 21.8375 15.4501 21.7337 15.5501 21.58L21.9801 11.76C22.1176 11.5587 22.1288 11.2987 22.0101 11.0862C21.8913 10.875 21.6626 10.7487 21.4201 10.76Z" fill="white"/>
</svg>
