<svg width="39" height="38" viewBox="0 0 39 38" fill="none" xmlns="http://www.w3.org/2000/svg">
<path d="M33.75 29.2917C33.75 31.4783 31.9783 33.25 29.7917 33.25H9.20833C7.02254 33.25 5.25 31.4783 5.25 29.2917V8.70833C5.25 6.52175 7.02254 4.75 9.20833 4.75H29.7917C31.9783 4.75 33.75 6.52175 33.75 8.70833V29.2917Z" fill="#3F51B5"/>
<path d="M27.708 19.7917H25.0417V30.0834H21.0833V19.7917H18.7083V16.625H21.0833V14.7171C21.0849 11.9399 22.2384 10.2917 25.5103 10.2917H28.2083V13.4584H26.3978C25.124 13.4584 25.0417 13.9334 25.0417 14.8224V16.625H28.2083L27.708 19.7917Z" fill="white"/>
</svg>
