<svg width="32" height="33" viewBox="0 0 32 33" fill="none" xmlns="http://www.w3.org/2000/svg">
<path d="M16 1.47998C7.87011 1.47998 1.28003 8.07006 1.28003 16.2C1.28003 24.3299 7.87011 30.92 16 30.92C24.1299 30.92 30.72 24.3299 30.72 16.2C30.72 8.07006 24.1299 1.47998 16 1.47998ZM16 7.23998C17.0605 7.23998 17.92 8.0995 17.92 9.15998C17.92 10.2205 17.0605 11.08 16 11.08C14.9395 11.08 14.08 10.2205 14.08 9.15998C14.08 8.0995 14.9395 7.23998 16 7.23998ZM18.56 24.52H17.28H14.72H13.44V23.24H14.72V14.92H13.44V13.64H14.72H17.28V14.92V23.24H18.56V24.52Z" fill="white"/>
</svg>
