<svg width="40" height="41" viewBox="0 0 40 41" fill="none" xmlns="http://www.w3.org/2000/svg">
<g clip-path="url(#clip0_183_109)">
<path d="M18.2248 0.200004C17.2842 0.196879 16.3248 0.331255 15.3748 0.625004C10.3217 2.19375 7.43106 7.61563 8.9998 12.675V12.725C9.20606 13.2938 9.75918 15.0938 10.0998 16.2H7.1998C5.88418 16.2 4.7998 17.2844 4.7998 18.6V37.8C4.7998 39.1156 5.88418 40.2 7.1998 40.2H32.7998C34.1154 40.2 35.1998 39.1156 35.1998 37.8V18.6C35.1998 17.2844 34.1154 16.2 32.7998 16.2H11.7998C11.5529 15.4063 10.8092 13.0594 10.4998 12.2H10.5248C9.21543 7.97813 11.5998 3.4875 15.8248 2.175C20.0404 0.865629 24.5561 3.2375 25.8748 7.45C25.8748 7.45313 25.8748 7.47188 25.8748 7.475C26.0561 8.10938 26.9248 10.925 26.9248 10.925C26.9967 11.2125 27.2217 11.4406 27.5092 11.5094C27.7998 11.5813 28.1029 11.4875 28.2998 11.2656C28.4967 11.0406 28.5561 10.7281 28.4498 10.45C28.4498 10.45 27.5467 7.5375 27.3998 7.025V7C26.2248 3.20938 22.8811 0.63438 19.1498 0.250004C18.8404 0.218754 18.5373 0.200004 18.2248 0.200004ZM7.1998 17.8H32.7998C33.2436 17.8 33.5998 18.1563 33.5998 18.6V37.8C33.5998 38.2438 33.2436 38.6 32.7998 38.6H7.1998C6.75606 38.6 6.3998 38.2438 6.3998 37.8V18.6C6.3998 18.1563 6.75606 17.8 7.1998 17.8ZM19.9998 24.2C18.6404 24.2 17.5998 25.2406 17.5998 26.6C17.5998 27.3188 17.9186 27.95 18.3998 28.35V30.6C18.3998 31.4813 19.1186 32.2 19.9998 32.2C20.8811 32.2 21.5998 31.4813 21.5998 30.6V28.35C22.0811 27.95 22.3998 27.3188 22.3998 26.6C22.3998 25.2406 21.3592 24.2 19.9998 24.2Z" fill="#E11C1C"/>
</g>
<defs>
<clipPath id="clip0_183_109">
<rect width="40" height="40" fill="white" transform="translate(0 0.199951)"/>
</clipPath>
</defs>
</svg>
