<svg width="112" height="50" viewBox="0 0 112 50" fill="none" xmlns="http://www.w3.org/2000/svg">
<path d="M80.4332 29.6355C80.8735 30.7642 81.5619 31.6225 82.4882 32.2097C83.4026 32.7963 84.5993 33.0902 86.0552 33.0902C87.2969 33.0902 88.3584 32.8753 89.2389 32.4579C90.1083 32.0516 90.7746 31.4304 91.2259 30.6061C91.6773 29.7935 91.9033 28.8111 91.9033 27.6595H98.5077C98.5077 30.0868 97.9884 32.0967 96.961 33.7107C95.9335 35.3254 94.4886 36.5332 92.6257 37.3464C90.7746 38.1479 88.5955 38.5542 86.0892 38.5542C83.2106 38.5542 80.7493 38.046 78.7394 37.0525C76.7191 36.0479 75.1953 34.524 74.156 32.4579C73.1063 30.403 72.587 27.8065 72.587 24.6568C72.587 20.0283 73.7497 16.5624 76.0868 14.2593C78.4122 11.9561 81.7429 10.8045 86.0892 10.8045C88.5165 10.8045 90.6616 11.2108 92.5356 12.0351C94.4096 12.8477 95.8662 14.0783 96.927 15.7041C97.9774 17.3299 98.5077 19.3509 98.5077 21.7664H91.6773C91.6773 20.6266 91.4402 19.6442 90.9888 18.8199C90.5375 18.0073 89.8941 17.375 89.0808 16.9347C88.2565 16.4945 87.2637 16.2685 86.0892 16.2685C84.6333 16.2685 83.4359 16.5624 82.4993 17.1608C81.5619 17.7591 80.8735 18.6285 80.4332 19.7461C79.993 20.8637 79.7669 22.2185 79.7669 23.7985V25.5602C79.7669 27.1402 79.993 28.5068 80.4332 29.6355ZM66.9761 16.7316H44.6231V11.2676H66.9761V16.7316ZM66.9761 27.1181H44.6231V21.7671H66.9761V27.1181ZM66.9761 38.08H44.6231V32.616H66.9761V38.08ZM32.374 38.08L25.1713 23.4491H29.0101C29.9807 23.4491 30.7482 23.1329 31.3355 22.4895C31.9227 21.8572 32.216 20.9989 32.216 19.9382C32.216 19.2379 32.0808 18.6396 31.8208 18.1425C31.5615 17.6461 31.2003 17.262 30.726 16.9909C30.2629 16.7205 29.6875 16.5846 29.0101 16.5846H21.7955V38.08H14.8077V11.2676H30.3759C32.3518 11.2676 34.0109 11.64 35.3317 12.3853C36.6642 13.1299 37.6577 14.1463 38.3233 15.433C38.9782 16.7205 39.3165 18.1543 39.3165 19.7461C39.3165 21.4621 38.9221 22.9859 38.1202 24.3296C37.3305 25.6614 36.224 26.7118 34.7902 27.4682L40.1749 38.08H32.374ZM0 49.2H111.801V0H0V49.2Z" fill="#E11C1C"/>
</svg>
