<svg width="24" height="25" viewBox="0 0 24 25" fill="none" xmlns="http://www.w3.org/2000/svg">
<path d="M12 1.16016C5.90842 1.16016 0.959961 6.10862 0.959961 12.2002C0.959961 18.2917 5.90842 23.2402 12 23.2402C18.0915 23.2402 23.04 18.2917 23.04 12.2002C23.04 6.10862 18.0915 1.16016 12 1.16016ZM12 2.12016C17.5727 2.12016 22.08 6.62744 22.08 12.2002C22.08 17.7729 17.5727 22.2802 12 22.2802C6.42725 22.2802 1.91996 17.7729 1.91996 12.2002C1.91996 6.62744 6.42725 2.12016 12 2.12016ZM11.52 6.44016V11.7202H6.23996V12.6802H11.52V17.9602H12.48V12.6802H17.76V11.7202H12.48V6.44016H11.52Z" fill="#E11C1C"/>
</svg>
